<svg xmlns="http://www.w3.org/2000/svg" version="1.1" id="圖層_1" x="0" y="0" viewBox="0 0 100 100" xml:space="preserve"><circle cx="50" cy="50" r="40" fill="#333"/><g><g><path d="M50 74c-13.255 0-24-10.745-24-24s10.745-24 24-24c3.978 0 7.73.968 11.034 2.681" fill="none" stroke="#fff" stroke-width="3.5" stroke-linecap="round" stroke-linejoin="round"/><g><path fill="#fff" d="M64.92 21.181l-9.797 13.904L66.97 33.03z"/></g></g></g><g><g><path d="M70.843 38.093a23.847 23.847 0 0 1 2.014 4.567" fill="none" stroke="#fff" stroke-width="3.5" stroke-linecap="round" stroke-linejoin="round"/><path d="M73.993 50.571c-.231 9.895-6.451 18.309-15.176 21.757" fill="none" stroke="#fff" stroke-width="3.5" stroke-linecap="round" stroke-linejoin="round" stroke-dasharray="8.0279,8.0279"/><path d="M54.97 73.485A24.08 24.08 0 0 1 50 74" fill="none" stroke="#fff" stroke-width="3.5" stroke-linecap="round" stroke-linejoin="round"/></g></g><path fill="none" stroke="#fff" stroke-width="3.5" stroke-linecap="round" stroke-linejoin="round" stroke-miterlimit="10" d="M50 50V33.886"/><path fill="none" stroke="#fff" stroke-width="3.5" stroke-linecap="round" stroke-linejoin="round" stroke-miterlimit="10" d="M50 50l10.175 5.874"/><metadata xmlns:d="https://loading.io/stock/"><d:name>time</d:name><d:tags>time,elapse,countdown,speed,remain,hour,minutes,temporal</d:tags><d:license>by</d:license><d:slug>pq1iww</d:slug></metadata></svg>